<?xml version="1.0" standalone="no"?>
<!DOCTYPE svg PUBLIC "-//W3C//DTD SVG 20010904//EN"
 "http://www.w3.org/TR/2001/REC-SVG-20010904/DTD/svg10.dtd">
<svg version="1.0" xmlns="http://www.w3.org/2000/svg"
 width="300.000000pt" height="300.000000pt" viewBox="0 0 300.000000 300.000000"
 preserveAspectRatio="xMidYMid meet">
<metadata>
Created by potrace 1.10, written by Peter Selinger 2001-2011
</metadata>
<g transform="translate(0.000000,300.000000) scale(0.100000,-0.100000)"
fill="#000000" stroke="none">
<path d="M1315 2735 c-324 -50 -616 -225 -810 -484 -280 -371 -332 -866 -136
-1277 128 -268 324 -467 586 -595 132 -64 221 -92 365 -114 443 -68 891 115
1172 480 80 103 177 291 208 405 82 298 59 605 -65 867 -92 195 -220 355 -384
479 -100 76 -293 174 -401 204 -175 48 -371 61 -535 35z m375 -29 c8 -3 26 -7
40 -10 154 -27 371 -122 495 -218 117 -90 237 -217 302 -323 34 -53 103 -189
103 -200 0 -4 7 -21 15 -38 24 -53 53 -180 66 -289 19 -167 -1 -346 -57 -518
-27 -81 -98 -229 -117 -245 -7 -6 -21 -26 -31 -45 -42 -78 -135 -181 -236
-262 -166 -135 -325 -209 -541 -254 -101 -22 -342 -24 -438 -5 -362 71 -643
266 -837 581 -68 110 -104 199 -142 350 -23 93 -26 124 -25 275 0 156 3 180
30 285 73 277 233 518 458 688 144 108 377 204 561 231 62 9 328 7 354 -3z"/>
<path d="M1100 2312 c-67 -32 -175 -110 -232 -166 -58 -57 -138 -156 -138
-170 0 -5 -9 -20 -19 -35 -50 -70 -111 -276 -111 -376 0 -90 8 -95 152 -95
141 0 145 3 164 123 28 174 130 324 284 418 69 42 81 57 75 91 -7 43 -76 191
-98 211 -23 20 -32 20 -77 -1z m111 -123 c26 -62 47 -114 46 -115 -1 -1 -25
-13 -53 -27 -69 -35 -154 -106 -198 -165 -75 -102 -126 -239 -126 -339 l0 -43
-130 0 -130 0 6 48 c21 185 61 304 144 430 60 91 151 185 235 242 61 42 148
90 153 85 2 -2 26 -54 53 -116z"/>
<path d="M1400 1760 c-40 -13 -67 -32 -102 -70 -106 -114 -104 -276 6 -385 67
-67 131 -90 224 -81 79 8 111 24 171 85 112 111 104 295 -16 401 -78 68 -179
86 -283 50z m205 -34 c57 -26 99 -70 128 -135 40 -91 4 -224 -78 -287 -199
-152 -464 37 -393 280 15 51 99 137 148 153 62 19 140 15 195 -11z"/>
<path d="M512 1127 c-17 -20 -25 -260 -10 -292 13 -28 48 -34 68 -10 7 8 13
33 14 55 0 22 4 40 8 40 9 0 23 -41 20 -60 -2 -13 -1 -13 7 1 7 11 2 31 -19
73 l-29 57 -3 -83 c-3 -81 -4 -83 -28 -83 l-25 0 0 150 0 150 25 0 c21 0 31
-12 63 -74 21 -41 39 -77 42 -79 2 -2 22 33 45 78 34 69 44 81 63 78 21 -3 22
-7 25 -147 1 -80 -2 -149 -7 -154 -5 -5 -19 -6 -31 -2 -20 6 -21 12 -18 86 2
43 1 79 -2 79 -4 0 -12 -17 -19 -37 -8 -20 -24 -47 -37 -60 -13 -13 -19 -23
-14 -23 13 0 50 37 52 53 1 6 4 -12 7 -42 7 -60 28 -84 59 -65 20 13 29 108
24 237 -3 65 -6 77 -23 82 -34 11 -54 -4 -82 -61 -15 -30 -32 -52 -37 -49 -6
3 -10 1 -10 -5 0 -7 -15 17 -34 52 -25 48 -39 64 -58 66 -14 2 -30 -3 -36 -11z"/>
<path d="M1250 1120 c-12 -22 2 -60 22 -60 7 0 4 -6 -6 -13 -14 -10 -17 -29
-17 -104 -1 -112 5 -133 35 -133 40 0 47 20 44 131 -2 80 -6 103 -18 107 -12
4 -13 3 -2 -10 9 -11 12 -45 10 -114 -3 -98 -3 -99 -28 -99 -25 0 -25 1 -28
99 -2 88 -1 101 17 117 11 11 25 19 30 19 17 0 25 49 11 65 -18 21 -57 19 -70
-5z m65 -20 c0 -30 -35 -40 -55 -15 -10 12 -10 18 0 30 20 25 55 15 55 -15z"/>
<path d="M1581 1113 c-18 -17 -36 -48 -44 -78 l-14 -50 -47 3 -46 4 0 -55 c0
-62 8 -69 64 -60 32 5 36 3 36 -16 0 -45 -107 -53 -142 -10 -13 15 -18 39 -18
83 0 53 4 66 25 86 21 19 32 22 80 18 38 -3 52 -1 45 6 -5 5 -33 10 -62 10
-46 0 -54 -4 -80 -34 -49 -59 -33 -171 29 -199 55 -25 133 -2 133 39 0 25 -17
34 -56 32 -18 -2 -35 2 -39 8 -3 5 2 10 12 11 14 0 15 2 3 7 -15 7 -26 51 -12
53 4 1 26 2 50 3 l42 2 0 -38 c0 -78 50 -128 128 -128 71 0 119 63 70 94 -12
7 -23 6 -41 -3 -56 -30 -78 7 -67 109 l5 45 57 -3 c61 -3 73 5 64 42 -7 29
-45 46 -101 46 -35 0 -51 -6 -74 -27z m156 -6 c9 -8 13 -23 10 -31 -5 -13 -16
-15 -61 -10 -48 6 -55 4 -65 -14 -14 -26 -14 -127 -1 -153 11 -20 63 -26 89
-10 20 13 41 2 41 -21 0 -26 -63 -52 -109 -44 -19 3 -46 17 -60 31 -23 22 -26
36 -30 105 -4 92 9 134 48 156 33 18 116 13 138 -9z"/>
<path d="M1787 1122 c-14 -15 -17 -42 -17 -149 0 -152 6 -163 84 -163 109 0
156 50 156 167 0 89 -13 119 -62 144 -50 26 -139 26 -161 1z m143 -5 c47 -16
70 -63 70 -142 0 -67 -13 -99 -50 -126 -29 -21 -128 -35 -149 -21 -11 8 -14
41 -13 146 0 74 3 140 7 146 8 13 91 12 135 -3z"/>
<path d="M1845 975 l0 -95 26 0 c44 0 62 22 66 81 5 72 -11 103 -57 107 l-35
3 0 -96z m58 73 l22 -12 -25 -7 c-24 -7 -24 -7 -2 -8 22 -1 24 -6 24 -56 0
-47 -2 -52 -27 -63 -14 -7 -28 -12 -29 -12 -2 0 -4 38 -4 85 0 88 3 94 41 73z"/>
<path d="M2152 1128 c-17 -17 -17 -289 0 -306 7 -7 21 -12 33 -12 40 0 45 17
45 165 0 148 -5 165 -45 165 -12 0 -26 -5 -33 -12z m57 -12 c9 -10 11 -55 9
-147 -2 -110 -6 -134 -20 -142 -12 -8 -21 -7 -32 2 -13 11 -16 37 -16 141 0
71 3 135 6 144 8 20 38 21 53 2z"/>
<path d="M2260 1121 c-5 -11 -10 -78 -10 -149 0 -112 2 -131 18 -145 43 -39
74 -11 76 69 0 47 2 53 13 38 13 -18 16 -34 14 -69 -2 -16 0 -17 8 -5 5 8 12
12 13 10 2 -3 12 -17 21 -32 19 -30 54 -37 75 -16 17 17 17 289 0 306 -18 18
-56 14 -68 -7 -5 -11 -10 -38 -10 -60 0 -23 -4 -41 -10 -41 -5 0 -10 5 -10 10
0 12 -51 92 -65 102 -19 14 -54 8 -65 -11z m97 -55 c20 -36 41 -62 46 -59 6 3
7 1 3 -5 -3 -6 -1 -23 6 -38 12 -26 13 -20 18 66 5 93 5 95 30 95 l25 0 3
-141 c2 -120 0 -143 -14 -154 -24 -21 -43 -3 -96 91 l-48 84 0 -87 c0 -78 -2
-87 -20 -93 -11 -3 -24 -3 -30 0 -11 7 -14 287 -3 298 20 21 45 3 80 -57z"/>
<path d="M1095 1051 c-38 -16 -49 -41 -46 -98 0 -13 5 -23 10 -23 6 0 7 16 4
35 -4 26 -1 41 12 55 35 39 127 34 133 -8 4 -23 -1 -25 -57 -22 -43 2 -38 -19
10 -35 100 -34 57 -148 -49 -131 -76 12 -79 60 -4 54 59 -4 64 14 11 35 -29
12 -47 14 -58 6 -14 -8 -14 -9 3 -7 10 2 21 -3 24 -11 3 -10 -1 -12 -17 -8
-14 3 -21 0 -21 -9 0 -8 -4 -14 -10 -14 -6 0 -10 30 -10 71 0 79 -11 109 -41
109 -48 0 -59 -16 -59 -90 0 -40 -4 -70 -10 -70 -6 0 -10 29 -10 68 0 75 -9
92 -52 92 -35 0 -42 -23 -36 -121 3 -63 7 -74 32 -95 24 -22 35 -24 96 -21 38
2 75 9 83 15 10 9 18 8 33 -3 25 -19 87 -19 124 0 57 29 52 102 -8 135 -20 11
-27 18 -14 14 42 -11 70 38 37 66 -19 15 -84 22 -110 11z m-202 -24 c2 -7 4
-38 2 -70 -3 -62 12 -94 38 -84 13 5 17 24 19 84 3 77 3 78 31 81 l27 3 0 -83
c0 -52 5 -89 12 -96 10 -9 8 -16 -5 -29 -12 -12 -20 -14 -28 -6 -7 7 -21 8
-44 0 -46 -14 -90 5 -104 45 -12 34 -15 151 -4 161 11 12 51 8 56 -6z"/>
<path d="M2032 910 c1 -8 -2 -23 -7 -33 -4 -10 -3 -29 3 -43 14 -30 52 -32 77
-4 27 29 7 70 -34 70 -16 0 -32 6 -35 13 -4 8 -5 7 -4 -3z m67 -39 c13 -24 -8
-55 -34 -50 -28 6 -42 34 -26 53 18 22 48 20 60 -3z"/>
</g>
</svg>
